<?xml version="1.0" standalone="no"?>
<!DOCTYPE svg PUBLIC "-//W3C//DTD SVG 20010904//EN"
 "http://www.w3.org/TR/2001/REC-SVG-20010904/DTD/svg10.dtd">
<svg version="1.0" xmlns="http://www.w3.org/2000/svg"
 width="442.000000pt" height="442.000000pt" viewBox="0 0 442.000000 442.000000"
 preserveAspectRatio="xMidYMid meet">
<metadata>
Created by potrace 1.14, written by Peter Selinger 2001-2017
</metadata>
<g transform="translate(0.000000,442.000000) scale(0.100000,-0.100000)"
fill="#000000" stroke="none">
<path d="M838 3144 c-3 -2 -16 -7 -28 -9 -13 -3 -28 -10 -34 -16 -8 -9 -7 -10
2 -4 11 6 11 3 0 -15 -11 -18 -11 -23 0 -27 10 -4 10 -8 0 -21 -10 -12 -10
-16 0 -19 6 -3 12 -9 12 -14 0 -6 -3 -8 -8 -5 -9 6 -9 -355 0 -370 4 -6 4 -14
0 -18 -12 -12 -11 -71 2 -78 7 -5 6 -8 -4 -8 -13 0 -13 -2 -1 -9 12 -8 12 -12
2 -25 -10 -12 -11 -16 -1 -16 8 0 9 -6 5 -17 -8 -19 -8 -21 -2 -63 2 -14 -2
-31 -7 -39 -8 -11 -8 -13 2 -7 15 9 15 1 1 -26 -8 -15 -8 -19 0 -14 15 10 14
-7 -1 -22 -9 -9 -9 -12 1 -12 11 0 11 -3 0 -16 -10 -13 -10 -17 2 -25 12 -8
12 -10 -1 -20 -11 -8 -12 -12 -3 -16 9 -3 10 -10 3 -24 -6 -10 -7 -19 -2 -19
4 0 8 -9 8 -20 0 -11 -4 -20 -8 -20 -5 0 -4 -8 1 -18 7 -13 6 -23 -1 -30 -9
-9 -9 -12 0 -12 10 0 10 -5 2 -20 -8 -15 -8 -20 1 -20 8 0 7 -5 -2 -17 -10
-12 -11 -15 -1 -9 9 6 11 1 8 -18 -3 -14 -8 -31 -12 -37 -4 -7 -3 -10 2 -7 5
4 10 -52 11 -130 2 -97 -1 -139 -10 -144 -8 -5 -8 -8 -1 -8 7 0 11 -21 10 -56
0 -31 3 -58 8 -61 4 -3 2 -9 -5 -14 -12 -8 -11 -11 1 -19 8 -5 11 -10 5 -10
-14 0 -10 -77 4 -94 9 -11 9 -16 1 -21 -7 -4 -10 -16 -7 -26 3 -11 2 -19 -1
-19 -4 0 -7 -56 -7 -125 0 -69 2 -125 5 -125 3 0 5 -12 4 -27 -1 -16 -3 -28
-4 -28 -1 0 -3 -10 -4 -22 -2 -13 -1 -21 1 -19 2 2 16 -7 30 -20 14 -13 30
-21 35 -18 13 8 111 12 123 5 15 -8 45 -8 39 0 -2 4 5 7 16 6 11 -1 20 -5 20
-10 0 -5 6 -5 12 0 16 13 48 13 48 0 0 -6 5 -6 12 -1 11 8 72 10 88 4 16 -6
48 -5 44 1 -2 4 5 7 16 6 11 -1 20 -5 20 -10 0 -5 7 -4 15 3 11 9 19 9 28 2 7
-6 18 -8 25 -3 13 8 105 6 129 -3 8 -3 11 -2 8 4 -3 5 4 8 15 7 11 -1 20 -5
20 -10 0 -5 7 -4 15 3 8 6 20 8 27 4 17 -11 48 -13 42 -3 -2 4 5 7 16 6 11 -1
20 -5 20 -10 0 -5 6 -5 13 2 10 8 17 7 27 -2 9 -9 11 -9 6 0 -4 8 1 11 14 10
11 -1 20 -6 20 -11 0 -6 5 -5 12 2 9 9 15 9 27 -1 11 -9 13 -9 8 0 -5 8 0 11
13 10 11 -1 20 -5 20 -10 0 -5 6 -5 13 2 10 8 17 7 27 -2 10 -9 11 -9 6 0 -9
16 -1 16 26 2 13 -7 18 -7 14 -1 -7 12 33 10 53 -3 10 -5 12 -4 7 3 -9 15 6
16 21 1 8 -8 13 -8 17 0 5 8 13 8 28 0 13 -7 18 -7 14 -1 -7 12 33 10 53 -3 9
-5 12 -4 8 2 -9 14 65 12 75 -2 5 -7 8 -7 8 0 0 11 145 12 171 1 10 -4 20 -3
24 3 4 8 12 8 27 0 11 -6 18 -7 15 -2 -5 7 124 10 158 3 6 -1 12 -1 15 0 21 8
40 6 40 -3 0 -8 3 -7 9 2 6 9 11 10 15 2 4 -6 13 -8 19 -4 19 11 57 12 57 1 0
-7 5 -6 14 1 11 9 20 9 34 2 11 -6 22 -8 26 -4 7 8 466 10 466 2 0 -3 7 -6 15
-6 8 0 12 4 9 8 -2 4 5 7 16 6 11 -1 20 -5 20 -10 0 -5 6 -5 13 2 10 8 17 7
27 -2 9 -9 11 -9 6 0 -4 8 1 11 14 10 11 -1 20 -5 20 -10 0 -4 5 -5 12 -1 16
10 58 12 52 2 -3 -4 4 -8 16 -8 12 0 19 4 16 9 -3 4 6 7 19 5 16 -1 25 3 25
12 0 8 3 14 8 14 4 0 7 42 7 93 0 50 4 98 10 106 8 11 7 13 -3 7 -10 -6 -13
-2 -11 15 2 13 0 29 -4 36 -4 6 -3 14 3 18 6 4 5 13 -3 26 -10 16 -9 21 3 29
11 7 11 10 2 10 -9 0 -10 5 -2 19 6 12 6 22 1 25 -11 7 -9 25 3 45 6 10 5 12
-2 7 -14 -8 -12 20 2 43 6 9 5 12 -2 7 -7 -4 -10 1 -9 14 1 11 4 20 7 20 3 0
5 15 4 33 0 17 5 38 10 46 8 11 8 13 0 8 -7 -4 -14 2 -17 13 -3 11 -2 20 2 20
4 0 8 27 7 60 0 33 -3 60 -7 60 -12 0 -8 144 4 159 9 11 9 13 0 8 -9 -6 -11 9
-10 58 1 36 -2 65 -7 65 -5 0 -5 5 0 13 5 6 9 23 8 37 -6 81 -6 149 0 158 3 6
0 13 -6 15 -10 4 -10 6 0 6 7 1 10 6 6 12 -12 21 -5 302 9 311 9 6 9 8 -1 8
-7 0 -10 5 -7 10 4 6 10 8 15 5 5 -3 12 -1 15 5 4 6 3 10 -2 9 -34 -6 -39 2
-38 54 0 28 -4 58 -10 66 -7 11 -7 13 1 8 15 -9 24 79 10 93 -7 7 -6 10 2 10
10 0 10 5 1 22 -9 17 -9 23 0 26 6 2 8 9 4 14 -9 15 -12 68 -4 68 4 0 7 12 6
28 -1 15 2 39 6 53 8 30 -10 58 -40 64 -12 2 -26 7 -31 10 -6 3 -10 3 -10 -2
0 -10 -122 -9 -138 0 -6 4 -13 4 -15 0 -4 -7 -67 -9 -74 -3 -8 6 -29 5 -38 -1
-6 -4 -17 -4 -25 1 -8 5 -21 5 -32 -1 -13 -7 -18 -6 -18 3 0 10 -2 10 -9 -1
-6 -9 -10 -10 -16 -2 -5 9 -10 9 -21 0 -11 -9 -14 -8 -14 2 0 9 -3 10 -8 4
-10 -14 -62 -17 -62 -3 0 7 -4 7 -13 -1 -10 -8 -17 -7 -25 1 -7 7 -12 8 -12 2
0 -5 -9 -10 -20 -10 -11 0 -20 4 -20 9 0 4 -6 5 -12 1 -17 -11 -128 -11 -128
-1 0 4 -8 4 -17 -1 -10 -5 -27 -6 -38 -2 -11 4 -31 4 -45 1 -14 -4 -36 -6 -50
-4 -30 4 -55 4 -95 0 -16 -1 -38 1 -47 6 -10 4 -18 4 -18 0 0 -10 -82 -9 -98
1 -7 4 -12 3 -12 -2 0 -5 -7 -9 -15 -9 -8 0 -15 5 -15 11 0 7 -3 7 -8 1 -10
-14 -32 -17 -32 -4 0 6 -5 7 -12 2 -17 -10 -148 -10 -148 0 0 5 -5 5 -12 1
-16 -10 -127 -11 -154 -2 -12 4 -25 4 -28 0 -12 -11 -36 -10 -36 1 0 8 -3 8
-8 2 -8 -12 -27 -13 -38 -3 -4 4 -14 2 -22 -5 -12 -10 -16 -9 -20 1 -3 10 -7
10 -18 1 -10 -8 -18 -9 -27 0 -8 6 -16 8 -19 6 -12 -12 -53 -14 -60 -2 -6 9
-8 9 -8 0 0 -8 -14 -12 -40 -11 -25 1 -37 5 -33 12 4 7 1 7 -8 -1 -8 -6 -29
-10 -46 -9 -18 1 -35 -3 -37 -8 -3 -7 -5 -7 -5 1 -1 6 -10 9 -21 6 -13 -3 -20
0 -21 8 0 8 -4 5 -9 -6 -5 -11 -9 -15 -9 -9 -1 7 -12 9 -27 6 -16 -3 -30 1
-35 9 -7 11 -9 11 -9 1 0 -8 -6 -12 -12 -9 -7 2 -23 0 -35 -4 -17 -6 -25 -4
-32 9 -6 10 -11 12 -11 5 0 -7 -9 -13 -21 -13 -13 0 -18 4 -13 13 6 10 4 10
-7 0 -17 -17 -83 -18 -73 -1 5 8 3 8 -7 2 -21 -13 -132 -14 -148 0 -12 8 -13
8 -7 -2 5 -9 -3 -11 -33 -9 -23 2 -41 -1 -41 -7 0 -5 -7 -1 -16 10 -8 10 -12
13 -9 6 5 -10 0 -12 -23 -9 -17 3 -35 8 -40 11 -5 3 -11 3 -14 0z"/>
</g>
</svg>
